<?xml version="1.0" encoding="UTF-8"?>
<svg version="1.1" xmlns="http://www.w3.org/2000/svg" width="500" height="500">
<path d="M0 0 C165 0 330 0 500 0 C500 165 500 330 500 500 C335 500 170 500 0 500 C0 335 0 170 0 0 Z " fill="#FEFEFE" transform="translate(0,0)"/>
<path d="M0 0 C1.78954102 0.00193359 1.78954102 0.00193359 3.61523438 0.00390625 C20.35645408 0.16956978 36.74691883 4.55367682 49.8125 15.375 C50.65296875 16.05433594 51.4934375 16.73367187 52.359375 17.43359375 C67.71387899 30.48492214 77.29962444 49.41558843 79.8125 69.375 C80.98875586 94.75457462 76.72340357 117.57343613 59.25 137 C43.54653607 153.73661924 21.62444891 164.06114025 -1.30200195 165.58154297 C-4.47518642 165.67763218 -7.63792561 165.70401056 -10.8125 165.6875 C-11.94260498 165.68258545 -13.07270996 165.6776709 -14.23706055 165.67260742 C-38.18766079 165.34102297 -59.99470096 158.58700852 -78.1875 142.375 C-78.94675781 141.70984375 -79.70601563 141.0446875 -80.48828125 140.359375 C-94.83080565 126.98292738 -103.81741613 107.67786631 -104.5234375 88.08984375 C-104.87124372 62.15642391 -100.34328044 41.39386053 -81.84765625 21.91015625 C-75.7269633 16.10690604 -68.75114988 11.13483759 -61.1875 7.375 C-60.5275 7.705 -59.8675 8.035 -59.1875 8.375 C-59.1875 9.035 -59.1875 9.695 -59.1875 10.375 C-60.50316217 11.42514305 -61.86735248 12.41476399 -63.25 13.375 C-68.48642946 17.34547948 -71.79927774 21.79039246 -75.1875 27.375 C-75.63867188 28.07625 -76.08984375 28.7775 -76.5546875 29.5 C-84.78456403 43.81282874 -86.02727086 62.25301002 -87.1875 78.375 C-83.86208862 79.37454282 -80.84532437 79.50071647 -77.38049316 79.50198364 C-76.19437943 79.50480347 -75.00826569 79.50762329 -73.78620911 79.51052856 C-72.48842026 79.50850433 -71.19063141 79.5064801 -69.85351562 79.50439453 C-68.47027032 79.50574985 -67.08702538 79.50753052 -65.70378113 79.50970459 C-61.94972791 79.51426337 -58.19570218 79.51249574 -54.44164848 79.5093255 C-50.5130595 79.50679389 -46.58447287 79.50914168 -42.65588379 79.51071167 C-36.05850807 79.51253102 -29.46114355 79.5101332 -22.86376953 79.50537109 C-15.23615258 79.49992892 -7.60856236 79.50169175 0.01905394 79.5071975 C6.56776518 79.5117353 13.11646838 79.5123759 19.66518068 79.50975883 C23.57653015 79.50819974 27.48786704 79.50799225 31.3992157 79.51129532 C35.07636962 79.5141837 38.75348907 79.5121805 42.43063927 79.50640106 C44.42416206 79.50444779 46.41768778 79.50741916 48.41120911 79.51052856 C50.19037971 79.50629883 50.19037971 79.50629883 52.00549316 79.50198364 C53.0363932 79.50160662 54.06729324 79.50122959 55.12943268 79.50084114 C57.52043253 79.38869854 59.52903788 79.06135663 61.8125 78.375 C60.21761481 58.50189114 56.3366342 40.80562008 42.8125 25.375 C42.26851562 24.74851563 41.72453125 24.12203125 41.1640625 23.4765625 C33.28275581 15.00323277 23.82362879 11.2844446 12.8125 8.375 C12.17666992 8.1992041 11.54083984 8.0234082 10.88574219 7.84228516 C-3.88827453 4.5123902 -19.93780611 8.20472634 -32.7265625 15.76171875 C-42.54049796 22.19529866 -49.03102399 30.93277446 -52.1875 42.375 C-52.46330863 44.65952807 -52.6718786 46.95318383 -52.8125 49.25 C-52.88726562 50.40242188 -52.96203125 51.55484375 -53.0390625 52.7421875 C-53.08804688 53.61101562 -53.13703125 54.47984375 -53.1875 55.375 C-53.8475 55.375 -54.5075 55.375 -55.1875 55.375 C-57.89053472 49.96893056 -56.53081839 41.55310451 -55.0703125 35.82421875 C-50.16449842 22.21384076 -42.17273133 12.03387539 -29.31079102 5.32470703 C-19.59366357 0.97842374 -10.56306265 -0.2189833 0 0 Z " fill="#060606" transform="translate(382.1875,134.625)"/>
<path d="M0 0 C16.92746058 6.01536941 27.6013263 17.66861022 35.87109375 33.28515625 C36.21635605 33.93557388 36.56161835 34.58599152 36.91734314 35.25611877 C40.27269851 41.65331355 43.28145462 48.18894071 46.22106934 54.78527832 C47.80849486 58.34535606 49.4149455 61.89685061 51.01953125 65.44921875 C51.34867523 66.17879791 51.67781921 66.90837708 52.01693726 67.6600647 C55.39574227 75.13759318 58.84572646 82.58134144 62.32418823 90.01296997 C62.97806146 91.41030221 63.63084986 92.80814265 64.28250122 94.20651245 C65.19067 96.15465967 66.1025309 98.10103229 67.015625 100.046875 C67.53286133 101.1512793 68.05009766 102.25568359 68.58300781 103.39355469 C69.07124023 104.37743164 69.55947266 105.36130859 70.0625 106.375 C70.48797119 107.31593506 70.91344238 108.25687012 71.35180664 109.22631836 C72.92589757 111.6630292 72.92589757 111.6630292 75.97338867 112.03442383 C77.1307251 112.05013428 78.28806152 112.06584473 79.48046875 112.08203125 C81.36088867 112.12553711 81.36088867 112.12553711 83.27929688 112.16992188 C85.24479492 112.17862305 85.24479492 112.17862305 87.25 112.1875 C88.58532731 112.21064287 89.92061808 112.23600781 91.25585938 112.26367188 C94.52503823 112.32268232 97.79287372 112.35886229 101.0625 112.375 C101.45308594 111.116875 101.84367187 109.85875 102.24609375 108.5625 C104.11906101 102.9577626 106.59375972 97.70752511 109.125 92.375 C116.6579394 76.28948233 123.72982699 60.00438495 130.83970642 43.72875977 C134.54253569 35.26055711 138.29819325 26.81601826 142.0625 18.375 C143.3825 18.375 144.7025 18.375 146.0625 18.375 C146.18258423 19.23335449 146.30266846 20.09170898 146.4263916 20.97607422 C147.58269989 29.16605577 148.82892613 37.33614254 150.15625 45.5 C150.34844116 46.68996582 150.54063232 47.87993164 150.73864746 49.10595703 C151.34539598 52.86250033 151.95373708 56.61878266 152.5625 60.375 C153.36604934 65.33309762 154.16789809 70.29146604 154.96875 75.25 C155.14901733 76.35875488 155.32928467 77.46750977 155.51501465 78.60986328 C156.61041852 85.39328331 157.62026732 92.1848336 158.58126831 98.98855591 C159.76615262 107.3266279 161.05759631 115.64856161 162.35668945 123.96948242 C162.70183353 126.19560483 163.04201592 128.42250225 163.37719727 130.65014648 C166.71007733 152.76894261 170.87670796 176.63407137 189.55859375 191.33984375 C199.07743545 197.8745493 209.5888207 200.85700093 221.0625 201.375 C221.0625 202.035 221.0625 202.695 221.0625 203.375 C208.02577157 207.72057614 192.80894012 203.68262176 180.9375 197.8359375 C164.51403026 188.2099594 155.88164757 171.16170114 151.0625 153.375 C148.47789062 142.77810153 147.34181428 132.24917136 146.0625 121.375 C125.7675 120.88 125.7675 120.88 105.0625 120.375 C104.0725 123.345 103.0825 126.315 102.0625 129.375 C101.08600542 131.74085003 100.07637762 134.093345 99.03125 136.4296875 C98.46203961 137.71735954 97.89303556 139.0051228 97.32421875 140.29296875 C96.445169 142.27070838 95.56370983 144.24730176 94.67822266 146.22216797 C91.1414896 154.12815388 87.99766986 161.89427272 86.0625 170.375 C85.0725 170.375 84.0825 170.375 83.0625 170.375 C82.70236816 169.57956787 82.34223633 168.78413574 81.97119141 167.96459961 C74.39479052 151.24021139 66.76975637 134.53952308 59.0625 117.875 C51.50354082 101.53020301 44.02318198 85.15097909 36.59130859 68.74804688 C34.41899948 63.95522945 32.2409774 59.16501596 30.0625 54.375 C28.42351311 65.72359373 27.2993151 77.07285548 26.3359375 88.49609375 C26.1820674 90.29396865 26.02797987 92.09182496 25.87368774 93.8896637 C25.55378524 97.62668975 25.23640497 101.36391868 24.92089844 105.10131836 C24.51772577 109.87487052 24.1082564 114.64785823 23.69693565 119.42071438 C23.37875717 123.12064347 23.0638381 126.8208445 22.749897 130.52113533 C22.60017783 132.28136645 22.44947598 134.0415143 22.29774094 135.8015728 C22.08630746 138.25994541 21.87926709 140.71865106 21.67333984 143.17749023 C21.61102676 143.89192291 21.54871368 144.60635559 21.48451233 145.34243774 C20.97593998 151.51046061 20.55166912 157.33167647 22.0625 163.375 C25.0325 164.035 28.0025 164.695 31.0625 165.375 C31.0625 166.035 31.0625 166.695 31.0625 167.375 C17.8625 167.375 4.6625 167.375 -8.9375 167.375 C-8.9375 166.715 -8.9375 166.055 -8.9375 165.375 C-8.35742188 165.27703125 -7.77734375 165.1790625 -7.1796875 165.078125 C-1.99225861 164.08515181 2.09047798 163.06330616 6.0625 159.375 C9.26520079 152.72223395 9.91472076 145.34389203 10.7109375 138.1015625 C10.91759789 136.3294767 10.91759789 136.3294767 11.12843323 134.52159119 C11.57402215 130.68206 12.00604258 126.8411426 12.4375 123 C12.74210037 120.34487252 13.0473822 117.689834 13.35375977 115.03491211 C13.81679194 111.01657978 14.27858464 106.99811865 14.73518372 102.97904968 C15.66889518 94.76211155 16.6335347 86.54953772 17.62890625 78.33984375 C17.97720542 75.44420784 18.32492138 72.54850255 18.67242432 69.652771 C18.88808934 67.86512612 19.1057696 66.07772303 19.32562256 64.29058838 C22.30256177 43.28442015 22.30256177 43.28442015 14.0625 24.375 C13.36382812 23.40046875 12.66515625 22.4259375 11.9453125 21.421875 C4.01048404 11.08683153 -5.78128701 3.97932816 -18.85546875 1.9140625 C-21.21867719 1.66740887 -23.56413631 1.47796589 -25.9375 1.375 C-25.9375 0.715 -25.9375 0.055 -25.9375 -0.625 C-19.1103344 -4.0385828 -7.01476221 -2.01737195 0 0 Z " fill="#3C651B" transform="translate(66.9375,106.625)"/>
<path d="M0 0 C1.20315353 -0.00281982 2.40630707 -0.00563965 3.6459198 -0.00854492 C4.99136367 -0.00660033 6.3368074 -0.00455214 7.68225098 -0.00241089 C9.0896255 -0.0037649 10.49699967 -0.00554483 11.90437317 -0.00772095 C15.73691228 -0.01229531 19.56942459 -0.01050571 23.40196419 -0.00734186 C27.40404459 -0.00481827 31.40612263 -0.00715579 35.40820312 -0.00872803 C42.13025323 -0.01054973 48.85229237 -0.0081434 55.57434082 -0.00338745 C63.35702884 0.00205517 71.13969067 0.00029251 78.92237806 -0.00521386 C85.59242461 -0.00974498 92.26246326 -0.01039554 98.93251085 -0.00777519 C102.92149822 -0.00621241 106.91047325 -0.00601868 110.89945984 -0.00931168 C114.64879272 -0.01219037 118.39809168 -0.01021473 122.14742088 -0.00441742 C123.52735017 -0.00308981 124.90728229 -0.00348395 126.28721046 -0.00568008 C128.16323371 -0.00839153 130.03926315 -0.00439682 131.9152832 0 C132.96759377 0.00037703 134.01990433 0.00075405 135.10410309 0.0011425 C137.4576416 0.12698364 137.4576416 0.12698364 138.4576416 1.12698364 C138.84934551 6.54211841 137.85183085 10.88554111 135.8951416 15.87698364 C135.62556641 16.57509155 135.35599121 17.27319946 135.07824707 17.99246216 C127.9859897 35.68241565 114.83412376 49.30617033 97.4576416 57.06448364 C80.09136931 64.34338277 56.10471448 65.37682022 38.4185791 58.31253052 C30.0231069 54.66468236 22.27418163 50.29163003 15.4576416 44.12698364 C14.84791504 43.59717896 14.23818848 43.06737427 13.60998535 42.52151489 C2.54889989 32.28697208 -5.68472009 16.20062671 -6.5423584 1.12698364 C-4.79540782 -0.61996693 -2.37438291 0.0008507 0 0 Z " fill="#FEFEFE" transform="translate(303.5423583984375,230.87301635742188)"/>
<path d="M0 0 C1.51864422 2.76297023 2.31953693 5.0604702 2.7109375 8.18359375 C2.81946045 9.01503906 2.9279834 9.84648437 3.03979492 10.703125 C3.20572144 12.05664062 3.20572144 12.05664062 3.375 13.4375 C3.62815694 15.40504447 3.88210663 17.37248706 4.13671875 19.33984375 C4.27255371 20.40187012 4.40838867 21.46389648 4.54833984 22.55810547 C5.03580058 26.27281979 5.5554248 29.98204405 6.08203125 33.69140625 C6.26523926 34.98699463 6.44844727 36.28258301 6.63720703 37.61743164 C6.99904271 40.17034773 7.36323263 42.72293144 7.72998047 45.27514648 C7.8951416 46.45278564 8.06030273 47.6304248 8.23046875 48.84375 C8.37895264 49.88724609 8.52743652 50.93074219 8.68041992 52.00585938 C9 55 9 55 9 61 C-2.88 61 -14.76 61 -27 61 C-21.01947818 46.42247807 -14.83167826 31.96191486 -8.4375 17.5625 C-8.0768042 16.74825562 -7.7161084 15.93401123 -7.34448242 15.09509277 C-6.31447574 12.77177737 -5.28099163 10.4500464 -4.24609375 8.12890625 C-3.77640419 7.06957634 -3.77640419 7.06957634 -3.29722595 5.98884583 C-1.1155575 1.1155575 -1.1155575 1.1155575 0 0 Z " fill="#FAFBF9" transform="translate(203,158)"/>
<path d="M0 0 C3.45658479 2.04573386 4.7785359 3.66780385 7 7 C7.69920885 11.79689791 7.71482085 15.77459282 5.25 20 C1.11094006 23.67916439 -2.29723489 24.49336702 -7.7421875 24.39453125 C-11.59075968 23.72202988 -13.33977988 21.79323112 -16 19 C-17.88908399 15.22183202 -17.6118608 11.105586 -17 7 C-13.72042582 -0.6209777 -7.61564214 -1.48597895 0 0 Z " fill="#030303" transform="translate(223,94)"/>
<path d="M0 0 C3 2.4375 3 2.4375 5 5 C5.33 5.33 5.66 5.66 6 6 C6.29322866 8.93228663 6.50004247 11.14491883 6 14 C3.5625 16.9375 3.5625 16.9375 1 19 C0.67 19.33 0.34 19.66 0 20 C-4.65097645 20.67266188 -8.00993418 20.60616275 -12.0625 18.125 C-14.79376084 13.71974058 -15.00187438 10.05077166 -14 5 C-10.5976527 -0.48765694 -6.05309951 -1.41458304 0 0 Z " fill="#050505" transform="translate(83,279)"/>
<path d="M0 0 C4.64214547 0.46421455 5.83538551 1.86031782 8.75 5.375 C9.08 5.705 9.41 6.035 9.75 6.375 C10.15038554 10.53900962 10.19184328 12.69750696 7.875 16.25 C5.1626761 18.9623239 4.28758847 19.31414093 0.4375 19.75 C-4.15598187 19.28286625 -5.36447985 17.85459782 -8.25 14.375 C-8.58 14.045 -8.91 13.715 -9.25 13.375 C-9.625 10.125 -9.625 10.125 -9.25 6.375 C-6.8125 3.5 -6.8125 3.5 -4.25 1.375 C-3.25 0.375 -3.25 0.375 0 0 Z " fill="#416920" transform="translate(335.25,125.625)"/>
<path d="M0 0 C3.45627601 0.24827692 4.08496451 0.75800246 6.9375 3.125 C7.9584375 4.3934375 7.9584375 4.3934375 9 5.6875 C9.33 6.0175 9.66 6.3475 10 6.6875 C10.48861275 10.92214382 10.4375146 13.02417142 8.0625 16.625 C4.45743363 19.05290184 2.34875048 19.35494387 -1.91015625 19.12109375 C-4.92686488 18.49519719 -6.25075932 17.16559096 -8 14.6875 C-9.45147903 11.78454195 -9.37239025 9.91488221 -9 6.6875 C-6.59984927 2.63724564 -4.76739389 0.31602043 0 0 Z " fill="#3E661D" transform="translate(329,192.3125)"/>
<path d="M0 0 C6.93 0 13.86 0 21 0 C18.05162245 7.9184997 14.95998907 15.53499933 11 23 C7.78341719 19.2050411 5.88864085 14.85015351 3.8125 10.375 C3.44447266 9.59898437 3.07644531 8.82296875 2.69726562 8.0234375 C0 2.2585952 0 2.2585952 0 0 Z " fill="#FBFBFA" transform="translate(143,227)"/>
<path d="M0 0 C0 4.62 0 9.24 0 14 C-0.66 14 -1.32 14 -2 14 C-3.32229189 11.35541621 -3.09677194 9.32238699 -3.0625 6.375 C-3.05347656 5.37210938 -3.04445313 4.36921875 -3.03515625 3.3359375 C-3.02355469 2.56507813 -3.01195312 1.79421875 -3 1 C-1 0 -1 0 0 0 Z " fill="#1E1E1E" transform="translate(329,176)"/>
</svg>
